ISO-10303-21;
HEADER;
FILE_DESCRIPTION(('STEP AP214'),'1');
FILE_NAME('IND_PE-526xx_V_PUL','2026-08-10T07:51:58',(''),(''),'','','');
FILE_SCHEMA(('AUTOMOTIVE_DESIGN'));
ENDSEC;
DATA;
#1=SHAPE_DEFINITION_REPRESENTATION(#2,#3);
#2=PRODUCT_DEFINITION_SHAPE('',$,#4);
#3=SHAPE_REPRESENTATION('',(#197,#253,#550,#1144,#19),#11);
#4=PRODUCT_DEFINITION('design','example product_definition',#6,#5);
#5=PRODUCT_DEFINITION_CONTEXT('3D Mechanical Parts',#10,'design');
#6=PRODUCT_DEFINITION_FORMATION('1.0','first version',#8);
#7=APPLICATION_PROTOCOL_DEFINITION('international standard','automotive_design',2003,#10);
#8=PRODUCT('product','part','',(#9));
#9=PRODUCT_CONTEXT('3D Mechanical Parts',#10,'mechanical');
#10=APPLICATION_CONTEXT('Core Data for Automotive Mechanical Design Process');
#11=(GEOMETRIC_REPRESENTATION_CONTEXT(3) GLOBAL_UNCERTAINTY_ASSIGNED_CONTEXT((#12)) GLOBAL_UNIT_ASSIGNED_CONTEXT((#13,#14,#18)) REPRESENTATION_CONTEXT('ID1','3D'));
#12=UNCERTAINTY_MEASURE_WITH_UNIT(LENGTH_MEASURE(1.E-005),#13,'DISTANCE_ACCURACY_VALUE','Maximum model space distance between geometric entities at asserted connectivities');
#13=(LENGTH_UNIT() NAMED_UNIT(*) SI_UNIT(.MILLI.,.METRE.));
#14=(CONVERSION_BASED_UNIT('degree',#16) NAMED_UNIT(#15) PLANE_ANGLE_UNIT());
#15=DIMENSIONAL_EXPONENTS(0.,0.,0.,0.,0.,0.,0.);
#16=MEASURE_WITH_UNIT(PLANE_ANGLE_MEASURE(0.01745329252),#17);
#17=(NAMED_UNIT(*) PLANE_ANGLE_UNIT() SI_UNIT($,.RADIAN.));
#18=(NAMED_UNIT(*) SI_UNIT($,.STERADIAN.) SOLID_ANGLE_UNIT());
#19=AXIS2_PLACEMENT_3D('',#20,#21,#22);
#20=CARTESIAN_POINT('',(0.0,0.0,0.0));
#21=DIRECTION('',(0.0,0.0,1.0));
#22=DIRECTION('',(1.0,0.0,0.0));
#25=MECHANICAL_DESIGN_GEOMETRIC_PRESENTATION_REPRESENTATION($,(#249,#250,#251,#255,#304,#353,#402,#451,#500,#552,#583,#614,#667,#720,#773,#826,#879,#932,#985,#1038,#1091,#1146,#1177,#1208,#1261,#1314,#1367,#1420,#1473,#1526,#1579,#1632,#1685),#11);
#26=PRODUCT_CATEGORY_RELATIONSHIP('','',#27,#28);
#27=PRODUCT_CATEGORY('part','');
#28=PRODUCT_RELATED_PRODUCT_CATEGORY('','',(#8));
#34=PRESENTATION_STYLE_ASSIGNMENT((#35,#40));
#35=SURFACE_STYLE_USAGE(.BOTH.,#36);
#36=SURFACE_SIDE_STYLE('',(#37));
#37=SURFACE_STYLE_FILL_AREA(#38);
#38=FILL_AREA_STYLE('',(#39));
#39=FILL_AREA_STYLE_COLOUR('',#41);
#40=CURVE_STYLE('',#42,POSITIVE_LENGTH_MEASURE(0.1),#41);
#41=COLOUR_RGB('Aluminum',0.725,0.725,0.725);
#42=DRAUGHTING_PRE_DEFINED_CURVE_FONT('continuous');
#43=PRESENTATION_STYLE_ASSIGNMENT((#44,#49));
#44=SURFACE_STYLE_USAGE(.BOTH.,#45);
#45=SURFACE_SIDE_STYLE('',(#46));
#46=SURFACE_STYLE_FILL_AREA(#47);
#47=FILL_AREA_STYLE('',(#48));
#48=FILL_AREA_STYLE_COLOUR('',#50);
#49=CURVE_STYLE('',#51,POSITIVE_LENGTH_MEASURE(0.1),#50);
#50=COLOUR_RGB('Black',0.196,0.196,0.196);
#51=DRAUGHTING_PRE_DEFINED_CURVE_FONT('continuous');
#52=PRESENTATION_STYLE_ASSIGNMENT((#53,#58));
#53=SURFACE_STYLE_USAGE(.BOTH.,#54);
#54=SURFACE_SIDE_STYLE('',(#55));
#55=SURFACE_STYLE_FILL_AREA(#56);
#56=FILL_AREA_STYLE('',(#57));
#57=FILL_AREA_STYLE_COLOUR('',#59);
#58=CURVE_STYLE('',#60,POSITIVE_LENGTH_MEASURE(0.1),#59);
#59=COLOUR_RGB('Pin1',0.588,0.588,0.588);
#60=DRAUGHTING_PRE_DEFINED_CURVE_FONT('continuous');
#61=PRESENTATION_STYLE_ASSIGNMENT((#62,#67));
#62=SURFACE_STYLE_USAGE(.BOTH.,#63);
#63=SURFACE_SIDE_STYLE('',(#64));
#64=SURFACE_STYLE_FILL_AREA(#65);
#65=FILL_AREA_STYLE('',(#66));
#66=FILL_AREA_STYLE_COLOUR('',#68);
#67=CURVE_STYLE('',#69,POSITIVE_LENGTH_MEASURE(0.1),#68);
#68=COLOUR_RGB('HeatTab',0.588,0.588,0.588);
#69=DRAUGHTING_PRE_DEFINED_CURVE_FONT('continuous');
#70=PRESENTATION_STYLE_ASSIGNMENT((#71,#76));
#71=SURFACE_STYLE_USAGE(.BOTH.,#72);
#72=SURFACE_SIDE_STYLE('',(#73));
#73=SURFACE_STYLE_FILL_AREA(#74);
#74=FILL_AREA_STYLE('',(#75));
#75=FILL_AREA_STYLE_COLOUR('',#77);
#76=CURVE_STYLE('',#78,POSITIVE_LENGTH_MEASURE(0.1),#77);
#77=COLOUR_RGB('MountTab',0.706,0.706,0.706);
#78=DRAUGHTING_PRE_DEFINED_CURVE_FONT('continuous');
#79=PRESENTATION_STYLE_ASSIGNMENT((#80,#85));
#80=SURFACE_STYLE_USAGE(.BOTH.,#81);
#81=SURFACE_SIDE_STYLE('',(#82));
#82=SURFACE_STYLE_FILL_AREA(#83);
#83=FILL_AREA_STYLE('',(#84));
#84=FILL_AREA_STYLE_COLOUR('',#86);
#85=CURVE_STYLE('',#87,POSITIVE_LENGTH_MEASURE(0.1),#86);
#86=COLOUR_RGB('Gold',0.843,0.686,0.0);
#87=DRAUGHTING_PRE_DEFINED_CURVE_FONT('continuous');
#88=PRESENTATION_STYLE_ASSIGNMENT((#89,#94));
#89=SURFACE_STYLE_USAGE(.BOTH.,#90);
#90=SURFACE_SIDE_STYLE('',(#91));
#91=SURFACE_STYLE_FILL_AREA(#92);
#92=FILL_AREA_STYLE('',(#93));
#93=FILL_AREA_STYLE_COLOUR('',#95);
#94=CURVE_STYLE('',#96,POSITIVE_LENGTH_MEASURE(0.1),#95);
#95=COLOUR_RGB('Brown',0.459,0.345,0.176);
#96=DRAUGHTING_PRE_DEFINED_CURVE_FONT('continuous');
#97=PRESENTATION_STYLE_ASSIGNMENT((#98,#103));
#98=SURFACE_STYLE_USAGE(.BOTH.,#99);
#99=SURFACE_SIDE_STYLE('',(#100));
#100=SURFACE_STYLE_FILL_AREA(#101);
#101=FILL_AREA_STYLE('',(#102));
#102=FILL_AREA_STYLE_COLOUR('',#104);
#103=CURVE_STYLE('',#105,POSITIVE_LENGTH_MEASURE(0.1),#104);
#104=COLOUR_RGB('Tan',0.784,0.686,0.51);
#105=DRAUGHTING_PRE_DEFINED_CURVE_FONT('continuous');
#106=PRESENTATION_STYLE_ASSIGNMENT((#107,#112));
#107=SURFACE_STYLE_USAGE(.BOTH.,#108);
#108=SURFACE_SIDE_STYLE('',(#109));
#109=SURFACE_STYLE_FILL_AREA(#110);
#110=FILL_AREA_STYLE('',(#111));
#111=FILL_AREA_STYLE_COLOUR('',#113);
#112=CURVE_STYLE('',#114,POSITIVE_LENGTH_MEASURE(0.1),#113);
#113=COLOUR_RGB('Gray',0.431,0.431,0.431);
#114=DRAUGHTING_PRE_DEFINED_CURVE_FONT('continuous');
#115=PRESENTATION_STYLE_ASSIGNMENT((#116,#121));
#116=SURFACE_STYLE_USAGE(.BOTH.,#117);
#117=SURFACE_SIDE_STYLE('',(#118));
#118=SURFACE_STYLE_FILL_AREA(#119);
#119=FILL_AREA_STYLE('',(#120));
#120=FILL_AREA_STYLE_COLOUR('',#122);
#121=CURVE_STYLE('',#123,POSITIVE_LENGTH_MEASURE(0.1),#122);
#122=COLOUR_RGB('Red',0.6,0.0,0.0);
#123=DRAUGHTING_PRE_DEFINED_CURVE_FONT('continuous');
#124=PRESENTATION_STYLE_ASSIGNMENT((#125,#130));
#125=SURFACE_STYLE_USAGE(.BOTH.,#126);
#126=SURFACE_SIDE_STYLE('',(#127));
#127=SURFACE_STYLE_FILL_AREA(#128);
#128=FILL_AREA_STYLE('',(#129));
#129=FILL_AREA_STYLE_COLOUR('',#131);
#130=CURVE_STYLE('',#132,POSITIVE_LENGTH_MEASURE(0.1),#131);
#131=COLOUR_RGB('Blue',0.157,0.157,0.588);
#132=DRAUGHTING_PRE_DEFINED_CURVE_FONT('continuous');
#133=PRESENTATION_STYLE_ASSIGNMENT((#134,#139));
#134=SURFACE_STYLE_USAGE(.BOTH.,#135);
#135=SURFACE_SIDE_STYLE('',(#136));
#136=SURFACE_STYLE_FILL_AREA(#137);
#137=FILL_AREA_STYLE('',(#138));
#138=FILL_AREA_STYLE_COLOUR('',#140);
#139=CURVE_STYLE('',#141,POSITIVE_LENGTH_MEASURE(0.1),#140);
#140=COLOUR_RGB('Maroon',0.294,0.0,0.0);
#141=DRAUGHTING_PRE_DEFINED_CURVE_FONT('continuous');
#142=PRESENTATION_STYLE_ASSIGNMENT((#143,#148));
#143=SURFACE_STYLE_USAGE(.BOTH.,#144);
#144=SURFACE_SIDE_STYLE('',(#145));
#145=SURFACE_STYLE_FILL_AREA(#146);
#146=FILL_AREA_STYLE('',(#147));
#147=FILL_AREA_STYLE_COLOUR('',#149);
#148=CURVE_STYLE('',#150,POSITIVE_LENGTH_MEASURE(0.1),#149);
#149=COLOUR_RGB('Green',0.0,0.294,0.0);
#150=DRAUGHTING_PRE_DEFINED_CURVE_FONT('continuous');
#151=PRESENTATION_STYLE_ASSIGNMENT((#152,#157));
#152=SURFACE_STYLE_USAGE(.BOTH.,#153);
#153=SURFACE_SIDE_STYLE('',(#154));
#154=SURFACE_STYLE_FILL_AREA(#155);
#155=FILL_AREA_STYLE('',(#156));
#156=FILL_AREA_STYLE_COLOUR('',#158);
#157=CURVE_STYLE('',#159,POSITIVE_LENGTH_MEASURE(0.1),#158);
#158=COLOUR_RGB('Pin1Wrap',0.98,0.706,0.176);
#159=DRAUGHTING_PRE_DEFINED_CURVE_FONT('continuous');
#160=PRESENTATION_STYLE_ASSIGNMENT((#161,#166));
#161=SURFACE_STYLE_USAGE(.BOTH.,#162);
#162=SURFACE_SIDE_STYLE('',(#163));
#163=SURFACE_STYLE_FILL_AREA(#164);
#164=FILL_AREA_STYLE('',(#165));
#165=FILL_AREA_STYLE_COLOUR('',#167);
#166=CURVE_STYLE('',#168,POSITIVE_LENGTH_MEASURE(0.1),#167);
#167=COLOUR_RGB('Pin1Rad',0.588,0.588,0.588);
#168=DRAUGHTING_PRE_DEFINED_CURVE_FONT('continuous');
#169=PRESENTATION_STYLE_ASSIGNMENT((#170,#175));
#170=SURFACE_STYLE_USAGE(.BOTH.,#171);
#171=SURFACE_SIDE_STYLE('',(#172));
#172=SURFACE_STYLE_FILL_AREA(#173);
#173=FILL_AREA_STYLE('',(#174));
#174=FILL_AREA_STYLE_COLOUR('',#176);
#175=CURVE_STYLE('',#177,POSITIVE_LENGTH_MEASURE(0.1),#176);
#176=COLOUR_RGB('Pin1Axial',0.98,0.706,0.176);
#177=DRAUGHTING_PRE_DEFINED_CURVE_FONT('continuous');
#178=PRESENTATION_STYLE_ASSIGNMENT((#179,#184));
#179=SURFACE_STYLE_USAGE(.BOTH.,#180);
#180=SURFACE_SIDE_STYLE('',(#181));
#181=SURFACE_STYLE_FILL_AREA(#182);
#182=FILL_AREA_STYLE('',(#183));
#183=FILL_AREA_STYLE_COLOUR('',#185);
#184=CURVE_STYLE('',#186,POSITIVE_LENGTH_MEASURE(0.1),#185);
#185=COLOUR_RGB('Pin1Tant',0.459,0.345,0.176);
#186=DRAUGHTING_PRE_DEFINED_CURVE_FONT('continuous');
#187=PRESENTATION_STYLE_ASSIGNMENT((#188,#193));
#188=SURFACE_STYLE_USAGE(.BOTH.,#189);
#189=SURFACE_SIDE_STYLE('',(#190));
#190=SURFACE_STYLE_FILL_AREA(#191);
#191=FILL_AREA_STYLE('',(#192));
#192=FILL_AREA_STYLE_COLOUR('',#194);
#193=CURVE_STYLE('',#195,POSITIVE_LENGTH_MEASURE(0.1),#194);
#194=COLOUR_RGB('Shroud',0.235,0.235,0.235);
#195=DRAUGHTING_PRE_DEFINED_CURVE_FONT('continuous');
#197=MANIFOLD_SOLID_BREP($,#198);
#198=CLOSED_SHELL('',(#199,#200,#201));
#199=ADVANCED_FACE($,(#205,#204),#222,.T.);
#200=ADVANCED_FACE($,(#206),#202,.F.);
#201=ADVANCED_FACE($,(#207),#203,.T.);
#202=PLANE($,#227);
#203=PLANE($,#228);
#204=FACE_BOUND($,#209,.T.);
#205=FACE_OUTER_BOUND($,#208,.T.);
#206=FACE_OUTER_BOUND($,#210,.T.);
#207=FACE_OUTER_BOUND($,#211,.T.);
#208=EDGE_LOOP($,(#218));
#209=EDGE_LOOP($,(#219));
#210=EDGE_LOOP($,(#220));
#211=EDGE_LOOP($,(#221));
#212=CIRCLE($,#225,0.6477);
#213=CIRCLE($,#226,0.6477);
#214=VERTEX_POINT('',#243);
#215=VERTEX_POINT('',#245);
#216=EDGE_CURVE($,#214,#214,#212,.T.);
#217=EDGE_CURVE($,#215,#215,#213,.T.);
#218=ORIENTED_EDGE($,*,*,#216,.F.);
#219=ORIENTED_EDGE($,*,*,#217,.F.);
#220=ORIENTED_EDGE($,*,*,#217,.T.);
#221=ORIENTED_EDGE($,*,*,#216,.T.);
#222=CYLINDRICAL_SURFACE($,#224,0.6477);
#223=AXIS2_PLACEMENT_3D('placement',#241,#229,#230);
#224=AXIS2_PLACEMENT_3D($,#242,#231,#232);
#225=AXIS2_PLACEMENT_3D($,#244,#233,#234);
#226=AXIS2_PLACEMENT_3D($,#246,#235,#236);
#227=AXIS2_PLACEMENT_3D($,#247,#237,#238);
#228=AXIS2_PLACEMENT_3D($,#248,#239,#240);
#229=DIRECTION('axis',(0.,1.,0.));
#230=DIRECTION('refdir',(1.,0.,0.));
#231=DIRECTION('',(0.,0.,1.));
#232=DIRECTION('',(1.,0.,0.));
#233=DIRECTION('',(0.,0.,1.));
#234=DIRECTION('',(1.,0.,0.));
#235=DIRECTION('',(0.,0.,-1.));
#236=DIRECTION('',(1.,0.,0.));
#237=DIRECTION('',(0.,0.,1.));
#238=DIRECTION('',(0.,1.,0.));
#239=DIRECTION('',(0.,0.,1.));
#240=DIRECTION('',(0.,1.,0.));
#241=CARTESIAN_POINT('',(0.,0.,0.));
#242=CARTESIAN_POINT('',(0.0,5.08,18.034));
#243=CARTESIAN_POINT('',(-0.648,5.08,18.037));
#244=CARTESIAN_POINT('',(0.0,5.08,18.037));
#245=CARTESIAN_POINT('',(-0.648,5.08,18.034));
#246=CARTESIAN_POINT('',(0.0,5.08,18.034));
#247=CARTESIAN_POINT('',(0.0,5.08,18.034));
#248=CARTESIAN_POINT('',(0.0,5.08,18.037));
#249=STYLED_ITEM('color',(#52),#199);
#250=STYLED_ITEM('color',(#52),#200);
#251=STYLED_ITEM('color',(#52),#201);
#253=MANIFOLD_SOLID_BREP($,#254);
#254=CLOSED_SHELL('',(#256,#305,#354,#403,#452,#501));
#255=STYLED_ITEM('',(#43),#256);
#256=ADVANCED_FACE('',(#262),#257,.T.);
#257=PLANE('',#258);
#258=AXIS2_PLACEMENT_3D('',#259,#260,#261);
#259=CARTESIAN_POINT('',(-1.397,-1.397,0.0));
#260=DIRECTION('',(0.0,-1.0,0.0));
#261=DIRECTION('',(0.,0.,1.));
#262=FACE_OUTER_BOUND('',#263,.T.);
#263=EDGE_LOOP('',(#264,#274,#284,#294));
#267=CARTESIAN_POINT('',(16.637,-1.397,0.0));
#266=VERTEX_POINT('',#267);
#269=CARTESIAN_POINT('',(-1.397,-1.397,0.0));
#268=VERTEX_POINT('',#269);
#265=EDGE_CURVE('',#266,#268,#270,.T.);
#270=LINE('',#267,#272);
#272=VECTOR('',#273,18.034);
#273=DIRECTION('',(-1.0,0.0,0.0));
#264=ORIENTED_EDGE('',*,*,#265,.F.);
#277=CARTESIAN_POINT('',(16.637,-1.397,18.034));
#276=VERTEX_POINT('',#277);
#275=EDGE_CURVE('',#276,#266,#280,.T.);
#280=LINE('',#277,#282);
#282=VECTOR('',#283,18.034);
#283=DIRECTION('',(0.0,0.0,-1.0));
#274=ORIENTED_EDGE('',*,*,#275,.F.);
#287=CARTESIAN_POINT('',(-1.397,-1.397,18.034));
#286=VERTEX_POINT('',#287);
#285=EDGE_CURVE('',#286,#276,#290,.T.);
#290=LINE('',#287,#292);
#292=VECTOR('',#293,18.034);
#293=DIRECTION('',(1.0,0.0,0.0));
#284=ORIENTED_EDGE('',*,*,#285,.F.);
#295=EDGE_CURVE('',#268,#286,#300,.T.);
#300=LINE('',#269,#302);
#302=VECTOR('',#303,18.034);
#303=DIRECTION('',(0.0,0.0,1.0));
#294=ORIENTED_EDGE('',*,*,#295,.F.);
#304=STYLED_ITEM('',(#43),#305);
#305=ADVANCED_FACE('',(#311),#306,.T.);
#306=PLANE('',#307);
#307=AXIS2_PLACEMENT_3D('',#308,#309,#310);
#308=CARTESIAN_POINT('',(16.637,-1.397,0.0));
#309=DIRECTION('',(1.0,0.0,0.0));
#310=DIRECTION('',(0.,0.,1.));
#311=FACE_OUTER_BOUND('',#312,.T.);
#312=EDGE_LOOP('',(#313,#323,#333,#343));
#316=CARTESIAN_POINT('',(16.637,11.557,0.0));
#315=VERTEX_POINT('',#316);
#314=EDGE_CURVE('',#315,#266,#319,.T.);
#319=LINE('',#316,#321);
#321=VECTOR('',#322,12.954);
#322=DIRECTION('',(0.0,-1.0,0.0));
#313=ORIENTED_EDGE('',*,*,#314,.F.);
#326=CARTESIAN_POINT('',(16.637,11.557,18.034));
#325=VERTEX_POINT('',#326);
#324=EDGE_CURVE('',#325,#315,#329,.T.);
#329=LINE('',#326,#331);
#331=VECTOR('',#332,18.034);
#332=DIRECTION('',(0.0,0.0,-1.0));
#323=ORIENTED_EDGE('',*,*,#324,.F.);
#334=EDGE_CURVE('',#276,#325,#339,.T.);
#339=LINE('',#277,#341);
#341=VECTOR('',#342,12.954);
#342=DIRECTION('',(0.0,1.0,0.0));
#333=ORIENTED_EDGE('',*,*,#334,.F.);
#343=ORIENTED_EDGE('',*,*,#275,.T.);
#353=STYLED_ITEM('',(#43),#354);
#354=ADVANCED_FACE('',(#360),#355,.T.);
#355=PLANE('',#356);
#356=AXIS2_PLACEMENT_3D('',#357,#358,#359);
#357=CARTESIAN_POINT('',(16.637,11.557,0.0));
#358=DIRECTION('',(0.0,1.0,0.0));
#359=DIRECTION('',(0.,0.,1.));
#360=FACE_OUTER_BOUND('',#361,.T.);
#361=EDGE_LOOP('',(#362,#372,#382,#392));
#365=CARTESIAN_POINT('',(-1.397,11.557,0.0));
#364=VERTEX_POINT('',#365);
#363=EDGE_CURVE('',#364,#315,#368,.T.);
#368=LINE('',#365,#370);
#370=VECTOR('',#371,18.034);
#371=DIRECTION('',(1.0,0.0,0.0));
#362=ORIENTED_EDGE('',*,*,#363,.F.);
#375=CARTESIAN_POINT('',(-1.397,11.557,18.034));
#374=VERTEX_POINT('',#375);
#373=EDGE_CURVE('',#374,#364,#378,.T.);
#378=LINE('',#375,#380);
#380=VECTOR('',#381,18.034);
#381=DIRECTION('',(0.0,0.0,-1.0));
#372=ORIENTED_EDGE('',*,*,#373,.F.);
#383=EDGE_CURVE('',#325,#374,#388,.T.);
#388=LINE('',#326,#390);
#390=VECTOR('',#391,18.034);
#391=DIRECTION('',(-1.0,0.0,0.0));
#382=ORIENTED_EDGE('',*,*,#383,.F.);
#392=ORIENTED_EDGE('',*,*,#324,.T.);
#402=STYLED_ITEM('',(#43),#403);
#403=ADVANCED_FACE('',(#409),#404,.T.);
#404=PLANE('',#405);
#405=AXIS2_PLACEMENT_3D('',#406,#407,#408);
#406=CARTESIAN_POINT('',(-1.397,11.557,0.0));
#407=DIRECTION('',(-1.0,0.0,0.0));
#408=DIRECTION('',(0.,0.,1.));
#409=FACE_OUTER_BOUND('',#410,.T.);
#410=EDGE_LOOP('',(#411,#421,#431,#441));
#412=EDGE_CURVE('',#268,#364,#417,.T.);
#417=LINE('',#269,#419);
#419=VECTOR('',#420,12.954);
#420=DIRECTION('',(0.0,1.0,0.0));
#411=ORIENTED_EDGE('',*,*,#412,.F.);
#421=ORIENTED_EDGE('',*,*,#295,.T.);
#432=EDGE_CURVE('',#374,#286,#437,.T.);
#437=LINE('',#375,#439);
#439=VECTOR('',#440,12.954);
#440=DIRECTION('',(0.0,-1.0,0.0));
#431=ORIENTED_EDGE('',*,*,#432,.F.);
#441=ORIENTED_EDGE('',*,*,#373,.T.);
#451=STYLED_ITEM('',(#43),#452);
#452=ADVANCED_FACE('',(#458),#453,.T.);
#453=PLANE('',#454);
#454=AXIS2_PLACEMENT_3D('',#455,#456,#457);
#455=CARTESIAN_POINT('',(-1.397,11.557,0.0));
#456=DIRECTION('',(0.0,0.0,-1.0));
#457=DIRECTION('',(0.,1.,0.));
#458=FACE_OUTER_BOUND('',#459,.T.);
#459=EDGE_LOOP('',(#460,#470,#480,#490));
#460=ORIENTED_EDGE('',*,*,#363,.T.);
#470=ORIENTED_EDGE('',*,*,#314,.T.);
#480=ORIENTED_EDGE('',*,*,#265,.T.);
#490=ORIENTED_EDGE('',*,*,#412,.T.);
#500=STYLED_ITEM('',(#43),#501);
#501=ADVANCED_FACE('',(#507),#502,.T.);
#502=PLANE('',#503);
#503=AXIS2_PLACEMENT_3D('',#504,#505,#506);
#504=CARTESIAN_POINT('',(-1.397,-1.397,18.034));
#505=DIRECTION('',(0.0,0.0,1.0));
#506=DIRECTION('',(0.,1.,0.));
#507=FACE_OUTER_BOUND('',#508,.T.);
#508=EDGE_LOOP('',(#509,#519,#529,#539));
#509=ORIENTED_EDGE('',*,*,#285,.T.);
#519=ORIENTED_EDGE('',*,*,#334,.T.);
#529=ORIENTED_EDGE('',*,*,#383,.T.);
#539=ORIENTED_EDGE('',*,*,#432,.T.);
#550=MANIFOLD_SOLID_BREP($,#551);
#551=CLOSED_SHELL('',(#553,#584,#615,#668,#721,#774,#827,#880,#933,#986,#1039,#1092));
#552=STYLED_ITEM('color',(#34),#553);
#553=ADVANCED_FACE($,(#559),#554,.T.);
#554=PLANE($,#555);
#555=AXIS2_PLACEMENT_3D($,#556,#557,#558);
#556=CARTESIAN_POINT('',(0.0,5.08,0.0));
#557=DIRECTION('',(0.,0.,1.));
#558=DIRECTION('',(0.,1.,0.));
#559=FACE_OUTER_BOUND($,#560,.T.);
#560=EDGE_LOOP($,(#561, #572));
#564=CARTESIAN_POINT('',(0.0,5.524,0.0));
#563=VERTEX_POINT('',#564);
#566=CARTESIAN_POINT('',(0.0,4.636,0.0));
#565=VERTEX_POINT('',#566);
#562=EDGE_CURVE($,#563,#565,#567,.T.);
#567=CIRCLE($,#568,0.4445);
#569=CARTESIAN_POINT('',(0.0,5.08,0.0));
#568=AXIS2_PLACEMENT_3D($,#569,#570,#571);
#570=DIRECTION('',(0.0,0.0,-1.0));
#571=DIRECTION('',(0.0,-1.0,0.0));
#561=ORIENTED_EDGE('',*,*,#562,.F.);
#573=EDGE_CURVE($,#565,#563,#578,.T.);
#578=CIRCLE($,#579,0.4445);
#579=AXIS2_PLACEMENT_3D($,#569,#581,#582);
#581=DIRECTION('',(0.0,0.0,-1.0));
#582=DIRECTION('',(0.0,1.0,0.0));
#572=ORIENTED_EDGE('',*,*,#573,.F.);
#583=STYLED_ITEM('color',(#34),#584);
#584=ADVANCED_FACE($,(#590),#585,.T.);
#585=PLANE($,#586);
#586=AXIS2_PLACEMENT_3D($,#587,#588,#589);
#587=CARTESIAN_POINT('',(0.0,0.0,-6.096));
#588=DIRECTION('',(0.,0.,-1.));
#589=DIRECTION('',(0.,1.,0.));
#590=FACE_OUTER_BOUND($,#591,.T.);
#591=EDGE_LOOP($,(#592, #603));
#595=CARTESIAN_POINT('',(0.0,0.445,-6.096));
#594=VERTEX_POINT('',#595);
#597=CARTESIAN_POINT('',(0.0,-0.444,-6.096));
#596=VERTEX_POINT('',#597);
#593=EDGE_CURVE($,#594,#596,#598,.T.);
#598=CIRCLE($,#599,0.4445);
#600=CARTESIAN_POINT('',(0.0,0.0,-6.096));
#599=AXIS2_PLACEMENT_3D($,#600,#601,#602);
#601=DIRECTION('',(0.0,0.0,1.0));
#602=DIRECTION('',(0.0,-1.0,0.0));
#592=ORIENTED_EDGE('',*,*,#593,.F.);
#604=EDGE_CURVE($,#596,#594,#609,.T.);
#609=CIRCLE($,#610,0.4445);
#610=AXIS2_PLACEMENT_3D($,#600,#612,#613);
#612=DIRECTION('',(0.0,0.0,1.0));
#613=DIRECTION('',(0.0,1.0,0.0));
#603=ORIENTED_EDGE('',*,*,#604,.F.);
#614=STYLED_ITEM('color',(#34),#615);
#615=ADVANCED_FACE($,(#621),#616,.T.);
#616=CYLINDRICAL_SURFACE($,#617,0.4445);
#617=AXIS2_PLACEMENT_3D($,#618,#619,#620);
#618=CARTESIAN_POINT('',(0.0,5.08,-0.356));
#619=DIRECTION('',(0.,0.,1.));
#620=DIRECTION('',(1.0,0.0,0.0));
#621=FACE_OUTER_BOUND($,#622,.T.);
#622=EDGE_LOOP($,(#645, #623, #655, #634));
#648=CARTESIAN_POINT('',(0.0,5.524,-0.356));
#647=VERTEX_POINT('',#648);
#646=EDGE_CURVE('',#647,#563,#651,.T.);
#651=LINE('',#648,#653);
#653=VECTOR('',#654,0.3556);
#654=DIRECTION('',(0.0,0.0,1.0));
#645=ORIENTED_EDGE('',*,*,#646,.F.);
#626=CARTESIAN_POINT('',(0.0,4.636,-0.356));
#625=VERTEX_POINT('',#626);
#624=EDGE_CURVE($,#625,#647,#629,.T.);
#629=CIRCLE($,#630,0.4445);
#631=CARTESIAN_POINT('',(0.0,5.08,-0.356));
#630=AXIS2_PLACEMENT_3D($,#631,#632,#633);
#632=DIRECTION('',(0.0,0.0,-1.0));
#633=DIRECTION('',(0.0,1.0,0.0));
#623=ORIENTED_EDGE('',*,*,#624,.F.);
#656=EDGE_CURVE('',#565,#625,#661,.T.);
#661=LINE('',#566,#663);
#663=VECTOR('',#664,0.3556);
#664=DIRECTION('',(0.0,0.0,-1.0));
#655=ORIENTED_EDGE('',*,*,#656,.F.);
#634=ORIENTED_EDGE('',*,*,#573,.T.);
#667=STYLED_ITEM('color',(#34),#668);
#668=ADVANCED_FACE($,(#674),#669,.T.);
#669=CYLINDRICAL_SURFACE($,#670,0.4445);
#670=AXIS2_PLACEMENT_3D($,#671,#672,#673);
#671=CARTESIAN_POINT('',(0.0,5.08,-0.356));
#672=DIRECTION('',(0.,0.,1.));
#673=DIRECTION('',(1.0,0.0,0.0));
#674=FACE_OUTER_BOUND($,#675,.T.);
#675=EDGE_LOOP($,(#698, #676, #708, #687));
#698=ORIENTED_EDGE('',*,*,#656,.T.);
#677=EDGE_CURVE($,#647,#625,#682,.T.);
#682=CIRCLE($,#683,0.4445);
#683=AXIS2_PLACEMENT_3D($,#631,#685,#686);
#685=DIRECTION('',(0.0,0.0,-1.0));
#686=DIRECTION('',(0.0,-1.0,0.0));
#676=ORIENTED_EDGE('',*,*,#677,.F.);
#708=ORIENTED_EDGE('',*,*,#646,.T.);
#687=ORIENTED_EDGE('',*,*,#562,.T.);
#720=STYLED_ITEM('color',(#34),#721);
#721=ADVANCED_FACE($,(#727),#722,.T.);
#722=CYLINDRICAL_SURFACE($,#723,0.4445);
#723=AXIS2_PLACEMENT_3D($,#724,#725,#726);
#724=CARTESIAN_POINT('',(0.0,0.0,-6.096));
#725=DIRECTION('',(0.,0.,1.));
#726=DIRECTION('',(1.0,0.0,0.0));
#727=FACE_OUTER_BOUND($,#728,.T.);
#728=EDGE_LOOP($,(#751, #729, #761, #740));
#756=CARTESIAN_POINT('',(0.0,0.445,-3.556));
#755=VERTEX_POINT('',#756);
#752=EDGE_CURVE('',#594,#755,#757,.T.);
#757=LINE('',#595,#759);
#759=VECTOR('',#760,2.54);
#760=DIRECTION('',(0.0,0.0,1.0));
#751=ORIENTED_EDGE('',*,*,#752,.F.);
#729=ORIENTED_EDGE('',*,*,#593,.T.);
#764=CARTESIAN_POINT('',(0.0,-0.444,-3.556));
#763=VERTEX_POINT('',#764);
#762=EDGE_CURVE('',#763,#596,#767,.T.);
#767=LINE('',#764,#769);
#769=VECTOR('',#770,2.54);
#770=DIRECTION('',(0.0,0.0,-1.0));
#761=ORIENTED_EDGE('',*,*,#762,.F.);
#741=EDGE_CURVE($,#755,#763,#746,.T.);
#746=CIRCLE($,#747,0.4445);
#748=CARTESIAN_POINT('',(0.0,0.0,-3.556));
#747=AXIS2_PLACEMENT_3D($,#748,#749,#750);
#749=DIRECTION('',(0.0,0.0,1.0));
#750=DIRECTION('',(0.0,-1.0,0.0));
#740=ORIENTED_EDGE('',*,*,#741,.F.);
#773=STYLED_ITEM('color',(#34),#774);
#774=ADVANCED_FACE($,(#780),#775,.T.);
#775=CYLINDRICAL_SURFACE($,#776,0.4445);
#776=AXIS2_PLACEMENT_3D($,#777,#778,#779);
#777=CARTESIAN_POINT('',(0.0,0.0,-6.096));
#778=DIRECTION('',(0.,0.,1.));
#779=DIRECTION('',(1.0,0.0,0.0));
#780=FACE_OUTER_BOUND($,#781,.T.);
#781=EDGE_LOOP($,(#804, #782, #814, #793));
#804=ORIENTED_EDGE('',*,*,#762,.T.);
#782=ORIENTED_EDGE('',*,*,#604,.T.);
#814=ORIENTED_EDGE('',*,*,#752,.T.);
#794=EDGE_CURVE($,#763,#755,#799,.T.);
#799=CIRCLE($,#800,0.4445);
#800=AXIS2_PLACEMENT_3D($,#748,#802,#803);
#802=DIRECTION('',(0.0,0.0,1.0));
#803=DIRECTION('',(0.0,1.0,0.0));
#793=ORIENTED_EDGE('',*,*,#794,.F.);
#826=STYLED_ITEM('color',(#34),#827);
#827=ADVANCED_FACE($,(#833),#828,.T.);
#828=CYLINDRICAL_SURFACE($,#829,0.4445);
#829=AXIS2_PLACEMENT_3D($,#830,#831,#832);
#830=CARTESIAN_POINT('',(0.0,0.548,-2.735));
#831=DIRECTION('',(0.0,0.931,0.364));
#832=DIRECTION('',(1.0,0.0,0.0));
#833=FACE_OUTER_BOUND($,#834,.T.);
#834=EDGE_LOOP($,(#857, #835, #867, #846));
#860=CARTESIAN_POINT('',(0.0,0.718,-3.146));
#859=VERTEX_POINT('',#860);
#862=CARTESIAN_POINT('',(0.0,4.703,-1.587));
#861=VERTEX_POINT('',#862);
#858=EDGE_CURVE('',#859,#861,#863,.T.);
#863=LINE('',#860,#865);
#865=VECTOR('',#866,4.27831751159967);
#866=DIRECTION('',(0.0,0.931,0.364));
#857=ORIENTED_EDGE('',*,*,#858,.F.);
#838=CARTESIAN_POINT('',(0.0,0.377,-2.325));
#837=VERTEX_POINT('',#838);
#836=EDGE_CURVE($,#837,#859,#841,.T.);
#841=CIRCLE($,#842,0.4445);
#843=CARTESIAN_POINT('',(0.0,0.548,-2.735));
#842=AXIS2_PLACEMENT_3D($,#843,#844,#845);
#844=DIRECTION('',(0.0,-0.931,-0.364));
#845=DIRECTION('',(0.0,0.384,-0.923));
#835=ORIENTED_EDGE('',*,*,#836,.F.);
#870=CARTESIAN_POINT('',(0.0,4.362,-0.766));
#869=VERTEX_POINT('',#870);
#868=EDGE_CURVE('',#869,#837,#873,.T.);
#873=LINE('',#870,#875);
#875=VECTOR('',#876,4.27831751159967);
#876=DIRECTION('',(0.0,-0.931,-0.364));
#867=ORIENTED_EDGE('',*,*,#868,.F.);
#847=EDGE_CURVE($,#861,#869,#852,.T.);
#852=CIRCLE($,#853,0.4445);
#854=CARTESIAN_POINT('',(0.0,4.532,-1.177));
#853=AXIS2_PLACEMENT_3D($,#854,#855,#856);
#855=DIRECTION('',(0.0,0.931,0.364));
#856=DIRECTION('',(0.0,-0.384,0.923));
#846=ORIENTED_EDGE('',*,*,#847,.F.);
#879=STYLED_ITEM('color',(#34),#880);
#880=ADVANCED_FACE($,(#886),#881,.T.);
#881=CYLINDRICAL_SURFACE($,#882,0.4445);
#882=AXIS2_PLACEMENT_3D($,#883,#884,#885);
#883=CARTESIAN_POINT('',(0.0,0.548,-2.735));
#884=DIRECTION('',(0.0,0.931,0.364));
#885=DIRECTION('',(1.0,0.0,0.0));
#886=FACE_OUTER_BOUND($,#887,.T.);
#887=EDGE_LOOP($,(#910, #888, #920, #899));
#910=ORIENTED_EDGE('',*,*,#868,.T.);
#889=EDGE_CURVE($,#859,#837,#894,.T.);
#894=CIRCLE($,#895,0.4445);
#895=AXIS2_PLACEMENT_3D($,#843,#897,#898);
#897=DIRECTION('',(0.0,-0.931,-0.364));
#898=DIRECTION('',(0.0,-0.384,0.923));
#888=ORIENTED_EDGE('',*,*,#889,.F.);
#920=ORIENTED_EDGE('',*,*,#858,.T.);
#900=EDGE_CURVE($,#869,#861,#905,.T.);
#905=CIRCLE($,#906,0.4445);
#906=AXIS2_PLACEMENT_3D($,#854,#908,#909);
#908=DIRECTION('',(0.0,0.931,0.364));
#909=DIRECTION('',(0.0,-0.384,0.923));
#899=ORIENTED_EDGE('',*,*,#900,.F.);
#932=STYLED_ITEM('color',(#34),#933);
#933 = ADVANCED_FACE ( '', ( #939 ), #934, .T. ) ;
#934 = TOROIDAL_SURFACE ( '', #935, 0.889, 0.4445 ) ;
#935 = AXIS2_PLACEMENT_3D ( '', #936, #937, #938 ) ;
#936 = CARTESIAN_POINT ( '',  ( 0.0,4.191,-0.356 ) ) ;
#937 = DIRECTION ( '',  ( -1.0,0.0,0.0 ) ) ;
#938 = DIRECTION ( '',  ( 0.0000000000000000000, 0.0000000000000000000, -1.000000000000000000 ) ) ;
#939 = FACE_OUTER_BOUND ( '', #940, .T. ) ;
#940 = EDGE_LOOP ( '', ( #941, #952, #963, #974 ) ) ;
#941=ORIENTED_EDGE('',*,*,#624,.T.);
#953=EDGE_CURVE($,#861,#647,#958,.T.);
#958=CIRCLE($,#959,1.3335);
#960=CARTESIAN_POINT('',(0.0,4.191,-0.356));
#959=AXIS2_PLACEMENT_3D($,#960,#961,#962);
#961=DIRECTION('',(1.0,0.0,0.0));
#962=DIRECTION('',(0.0,0.0,1.0));
#952=ORIENTED_EDGE('',*,*,#953,.F.);
#963=ORIENTED_EDGE('',*,*,#847,.T.);
#975=EDGE_CURVE($,#625,#869,#980,.T.);
#980=CIRCLE($,#981,0.4445);
#981=AXIS2_PLACEMENT_3D($,#960,#983,#984);
#983=DIRECTION('',(-1.0,0.0,0.0));
#984=DIRECTION('',(0.0,0.0,1.0));
#974=ORIENTED_EDGE('',*,*,#975,.F.);
#985=STYLED_ITEM('color',(#34),#986);
#986 = ADVANCED_FACE ( '', ( #992 ), #987, .T. ) ;
#987 = TOROIDAL_SURFACE ( '', #988, 0.889, 0.4445 ) ;
#988 = AXIS2_PLACEMENT_3D ( '', #989, #990, #991 ) ;
#989 = CARTESIAN_POINT ( '',  ( 0.0,4.191,-0.356 ) ) ;
#990 = DIRECTION ( '',  ( 1.0,0.0,0.0 ) ) ;
#991 = DIRECTION ( '',  ( 0.0000000000000000000, 0.0000000000000000000, 1.000000000000000000 ) ) ;
#992 = FACE_OUTER_BOUND ( '', #993, .T. ) ;
#993 = EDGE_LOOP ( '', ( #994, #1005, #1016, #1027 ) ) ;
#994=ORIENTED_EDGE('',*,*,#677,.T.);
#1005=ORIENTED_EDGE('',*,*,#975,.T.);
#1016=ORIENTED_EDGE('',*,*,#900,.T.);
#1027=ORIENTED_EDGE('',*,*,#953,.T.);
#1038=STYLED_ITEM('color',(#34),#1039);
#1039 = ADVANCED_FACE ( '', ( #1045 ), #1040, .T. ) ;
#1040 = TOROIDAL_SURFACE ( '', #1041, 0.889, 0.4445 ) ;
#1041 = AXIS2_PLACEMENT_3D ( '', #1042, #1043, #1044 ) ;
#1042 = CARTESIAN_POINT ( '',  ( 0.0,0.889,-3.556 ) ) ;
#1043 = DIRECTION ( '',  ( 1.0,0.0,0.0 ) ) ;
#1044 = DIRECTION ( '',  ( 0.0000000000000000000, 0.0000000000000000000, 1.000000000000000000 ) ) ;
#1045 = FACE_OUTER_BOUND ( '', #1046, .T. ) ;
#1046 = EDGE_LOOP ( '', ( #1047, #1058, #1069, #1080 ) ) ;
#1047=ORIENTED_EDGE('',*,*,#889,.T.);
#1059=EDGE_CURVE($,#763,#837,#1064,.T.);
#1064=CIRCLE($,#1065,1.3335);
#1066=CARTESIAN_POINT('',(0.0,0.889,-3.556));
#1065=AXIS2_PLACEMENT_3D($,#1066,#1067,#1068);
#1067=DIRECTION('',(-1.0,0.0,0.0));
#1068=DIRECTION('',(0.0,0.0,1.0));
#1058=ORIENTED_EDGE('',*,*,#1059,.F.);
#1069=ORIENTED_EDGE('',*,*,#794,.T.);
#1081=EDGE_CURVE($,#859,#755,#1086,.T.);
#1086=CIRCLE($,#1087,0.4445);
#1087=AXIS2_PLACEMENT_3D($,#1066,#1089,#1090);
#1089=DIRECTION('',(1.0,0.0,0.0));
#1090=DIRECTION('',(0.0,0.0,1.0));
#1080=ORIENTED_EDGE('',*,*,#1081,.F.);
#1091=STYLED_ITEM('color',(#34),#1092);
#1092 = ADVANCED_FACE ( '', ( #1098 ), #1093, .T. ) ;
#1093 = TOROIDAL_SURFACE ( '', #1094, 0.889, 0.4445 ) ;
#1094 = AXIS2_PLACEMENT_3D ( '', #1095, #1096, #1097 ) ;
#1095 = CARTESIAN_POINT ( '',  ( 0.0,0.889,-3.556 ) ) ;
#1096 = DIRECTION ( '',  ( -1.0,0.0,0.0 ) ) ;
#1097 = DIRECTION ( '',  ( 0.0000000000000000000, 0.0000000000000000000, 1.000000000000000000 ) ) ;
#1098 = FACE_OUTER_BOUND ( '', #1099, .T. ) ;
#1099 = EDGE_LOOP ( '', ( #1100, #1111, #1122, #1133 ) ) ;
#1100=ORIENTED_EDGE('',*,*,#836,.T.);
#1111=ORIENTED_EDGE('',*,*,#1081,.T.);
#1122=ORIENTED_EDGE('',*,*,#741,.T.);
#1133=ORIENTED_EDGE('',*,*,#1059,.T.);
#1144=MANIFOLD_SOLID_BREP($,#1145);
#1145=CLOSED_SHELL('',(#1147,#1178,#1209,#1262,#1315,#1368,#1421,#1474,#1527,#1580,#1633,#1686));
#1146=STYLED_ITEM('color',(#34),#1147);
#1147=ADVANCED_FACE($,(#1153),#1148,.T.);
#1148=PLANE($,#1149);
#1149=AXIS2_PLACEMENT_3D($,#1150,#1151,#1152);
#1150=CARTESIAN_POINT('',(15.24,5.08,0.0));
#1151=DIRECTION('',(0.,0.,1.));
#1152=DIRECTION('',(0.,1.,0.));
#1153=FACE_OUTER_BOUND($,#1154,.T.);
#1154=EDGE_LOOP($,(#1155, #1166));
#1158=CARTESIAN_POINT('',(15.24,4.636,0.0));
#1157=VERTEX_POINT('',#1158);
#1160=CARTESIAN_POINT('',(15.24,5.524,0.0));
#1159=VERTEX_POINT('',#1160);
#1156=EDGE_CURVE($,#1157,#1159,#1161,.T.);
#1161=CIRCLE($,#1162,0.4445);
#1163=CARTESIAN_POINT('',(15.24,5.08,0.0));
#1162=AXIS2_PLACEMENT_3D($,#1163,#1164,#1165);
#1164=DIRECTION('',(0.0,0.0,-1.0));
#1165=DIRECTION('',(0.0,1.0,0.0));
#1155=ORIENTED_EDGE('',*,*,#1156,.F.);
#1167=EDGE_CURVE($,#1159,#1157,#1172,.T.);
#1172=CIRCLE($,#1173,0.4445);
#1173=AXIS2_PLACEMENT_3D($,#1163,#1175,#1176);
#1175=DIRECTION('',(0.0,0.0,-1.0));
#1176=DIRECTION('',(0.0,-1.0,0.0));
#1166=ORIENTED_EDGE('',*,*,#1167,.F.);
#1177=STYLED_ITEM('color',(#34),#1178);
#1178=ADVANCED_FACE($,(#1184),#1179,.T.);
#1179=PLANE($,#1180);
#1180=AXIS2_PLACEMENT_3D($,#1181,#1182,#1183);
#1181=CARTESIAN_POINT('',(15.24,10.16,-6.096));
#1182=DIRECTION('',(0.,0.,-1.));
#1183=DIRECTION('',(0.,1.,0.));
#1184=FACE_OUTER_BOUND($,#1185,.T.);
#1185=EDGE_LOOP($,(#1186, #1197));
#1189=CARTESIAN_POINT('',(15.24,9.715,-6.096));
#1188=VERTEX_POINT('',#1189);
#1191=CARTESIAN_POINT('',(15.24,10.604,-6.096));
#1190=VERTEX_POINT('',#1191);
#1187=EDGE_CURVE($,#1188,#1190,#1192,.T.);
#1192=CIRCLE($,#1193,0.4445);
#1194=CARTESIAN_POINT('',(15.24,10.16,-6.096));
#1193=AXIS2_PLACEMENT_3D($,#1194,#1195,#1196);
#1195=DIRECTION('',(0.0,0.0,1.0));
#1196=DIRECTION('',(0.0,1.0,0.0));
#1186=ORIENTED_EDGE('',*,*,#1187,.F.);
#1198=EDGE_CURVE($,#1190,#1188,#1203,.T.);
#1203=CIRCLE($,#1204,0.4445);
#1204=AXIS2_PLACEMENT_3D($,#1194,#1206,#1207);
#1206=DIRECTION('',(0.0,0.0,1.0));
#1207=DIRECTION('',(0.0,-1.0,0.0));
#1197=ORIENTED_EDGE('',*,*,#1198,.F.);
#1208=STYLED_ITEM('color',(#34),#1209);
#1209=ADVANCED_FACE($,(#1215),#1210,.T.);
#1210=CYLINDRICAL_SURFACE($,#1211,0.4445);
#1211=AXIS2_PLACEMENT_3D($,#1212,#1213,#1214);
#1212=CARTESIAN_POINT('',(15.24,5.08,-0.356));
#1213=DIRECTION('',(0.,0.,1.));
#1214=DIRECTION('',(-1.0,0.0,0.0));
#1215=FACE_OUTER_BOUND($,#1216,.T.);
#1216=EDGE_LOOP($,(#1239, #1217, #1249, #1228));
#1242=CARTESIAN_POINT('',(15.24,4.636,-0.356));
#1241=VERTEX_POINT('',#1242);
#1240=EDGE_CURVE('',#1241,#1157,#1245,.T.);
#1245=LINE('',#1242,#1247);
#1247=VECTOR('',#1248,0.3556);
#1248=DIRECTION('',(0.0,0.0,1.0));
#1239=ORIENTED_EDGE('',*,*,#1240,.F.);
#1220=CARTESIAN_POINT('',(15.24,5.524,-0.356));
#1219=VERTEX_POINT('',#1220);
#1218=EDGE_CURVE($,#1219,#1241,#1223,.T.);
#1223=CIRCLE($,#1224,0.4445);
#1225=CARTESIAN_POINT('',(15.24,5.08,-0.356));
#1224=AXIS2_PLACEMENT_3D($,#1225,#1226,#1227);
#1226=DIRECTION('',(0.0,0.0,-1.0));
#1227=DIRECTION('',(0.0,-1.0,0.0));
#1217=ORIENTED_EDGE('',*,*,#1218,.F.);
#1250=EDGE_CURVE('',#1159,#1219,#1255,.T.);
#1255=LINE('',#1160,#1257);
#1257=VECTOR('',#1258,0.3556);
#1258=DIRECTION('',(0.0,0.0,-1.0));
#1249=ORIENTED_EDGE('',*,*,#1250,.F.);
#1228=ORIENTED_EDGE('',*,*,#1167,.T.);
#1261=STYLED_ITEM('color',(#34),#1262);
#1262=ADVANCED_FACE($,(#1268),#1263,.T.);
#1263=CYLINDRICAL_SURFACE($,#1264,0.4445);
#1264=AXIS2_PLACEMENT_3D($,#1265,#1266,#1267);
#1265=CARTESIAN_POINT('',(15.24,5.08,-0.356));
#1266=DIRECTION('',(0.,0.,1.));
#1267=DIRECTION('',(-1.0,0.0,0.0));
#1268=FACE_OUTER_BOUND($,#1269,.T.);
#1269=EDGE_LOOP($,(#1292, #1270, #1302, #1281));
#1292=ORIENTED_EDGE('',*,*,#1250,.T.);
#1271=EDGE_CURVE($,#1241,#1219,#1276,.T.);
#1276=CIRCLE($,#1277,0.4445);
#1277=AXIS2_PLACEMENT_3D($,#1225,#1279,#1280);
#1279=DIRECTION('',(0.0,0.0,-1.0));
#1280=DIRECTION('',(0.0,1.0,0.0));
#1270=ORIENTED_EDGE('',*,*,#1271,.F.);
#1302=ORIENTED_EDGE('',*,*,#1240,.T.);
#1281=ORIENTED_EDGE('',*,*,#1156,.T.);
#1314=STYLED_ITEM('color',(#34),#1315);
#1315=ADVANCED_FACE($,(#1321),#1316,.T.);
#1316=CYLINDRICAL_SURFACE($,#1317,0.4445);
#1317=AXIS2_PLACEMENT_3D($,#1318,#1319,#1320);
#1318=CARTESIAN_POINT('',(15.24,10.16,-6.096));
#1319=DIRECTION('',(0.,0.,1.));
#1320=DIRECTION('',(-1.0,0.0,0.0));
#1321=FACE_OUTER_BOUND($,#1322,.T.);
#1322=EDGE_LOOP($,(#1345, #1323, #1355, #1334));
#1350=CARTESIAN_POINT('',(15.24,9.715,-3.556));
#1349=VERTEX_POINT('',#1350);
#1346=EDGE_CURVE('',#1188,#1349,#1351,.T.);
#1351=LINE('',#1189,#1353);
#1353=VECTOR('',#1354,2.54);
#1354=DIRECTION('',(0.0,0.0,1.0));
#1345=ORIENTED_EDGE('',*,*,#1346,.F.);
#1323=ORIENTED_EDGE('',*,*,#1187,.T.);
#1358=CARTESIAN_POINT('',(15.24,10.604,-3.556));
#1357=VERTEX_POINT('',#1358);
#1356=EDGE_CURVE('',#1357,#1190,#1361,.T.);
#1361=LINE('',#1358,#1363);
#1363=VECTOR('',#1364,2.54);
#1364=DIRECTION('',(0.0,0.0,-1.0));
#1355=ORIENTED_EDGE('',*,*,#1356,.F.);
#1335=EDGE_CURVE($,#1349,#1357,#1340,.T.);
#1340=CIRCLE($,#1341,0.4445);
#1342=CARTESIAN_POINT('',(15.24,10.16,-3.556));
#1341=AXIS2_PLACEMENT_3D($,#1342,#1343,#1344);
#1343=DIRECTION('',(0.0,0.0,1.0));
#1344=DIRECTION('',(0.0,1.0,0.0));
#1334=ORIENTED_EDGE('',*,*,#1335,.F.);
#1367=STYLED_ITEM('color',(#34),#1368);
#1368=ADVANCED_FACE($,(#1374),#1369,.T.);
#1369=CYLINDRICAL_SURFACE($,#1370,0.4445);
#1370=AXIS2_PLACEMENT_3D($,#1371,#1372,#1373);
#1371=CARTESIAN_POINT('',(15.24,10.16,-6.096));
#1372=DIRECTION('',(0.,0.,1.));
#1373=DIRECTION('',(-1.0,0.0,0.0));
#1374=FACE_OUTER_BOUND($,#1375,.T.);
#1375=EDGE_LOOP($,(#1398, #1376, #1408, #1387));
#1398=ORIENTED_EDGE('',*,*,#1356,.T.);
#1376=ORIENTED_EDGE('',*,*,#1198,.T.);
#1408=ORIENTED_EDGE('',*,*,#1346,.T.);
#1388=EDGE_CURVE($,#1357,#1349,#1393,.T.);
#1393=CIRCLE($,#1394,0.4445);
#1394=AXIS2_PLACEMENT_3D($,#1342,#1396,#1397);
#1396=DIRECTION('',(0.0,0.0,1.0));
#1397=DIRECTION('',(0.0,-1.0,0.0));
#1387=ORIENTED_EDGE('',*,*,#1388,.F.);
#1420=STYLED_ITEM('color',(#34),#1421);
#1421=ADVANCED_FACE($,(#1427),#1422,.T.);
#1422=CYLINDRICAL_SURFACE($,#1423,0.4445);
#1423=AXIS2_PLACEMENT_3D($,#1424,#1425,#1426);
#1424=CARTESIAN_POINT('',(15.24,9.612,-2.735));
#1425=DIRECTION('',(0.0,-0.931,0.364));
#1426=DIRECTION('',(-1.0,0.0,0.0));
#1427=FACE_OUTER_BOUND($,#1428,.T.);
#1428=EDGE_LOOP($,(#1451, #1429, #1461, #1440));
#1454=CARTESIAN_POINT('',(15.24,9.442,-3.146));
#1453=VERTEX_POINT('',#1454);
#1456=CARTESIAN_POINT('',(15.24,5.457,-1.587));
#1455=VERTEX_POINT('',#1456);
#1452=EDGE_CURVE('',#1453,#1455,#1457,.T.);
#1457=LINE('',#1454,#1459);
#1459=VECTOR('',#1460,4.27831751159967);
#1460=DIRECTION('',(0.0,-0.931,0.364));
#1451=ORIENTED_EDGE('',*,*,#1452,.F.);
#1432=CARTESIAN_POINT('',(15.24,9.783,-2.325));
#1431=VERTEX_POINT('',#1432);
#1430=EDGE_CURVE($,#1431,#1453,#1435,.T.);
#1435=CIRCLE($,#1436,0.4445);
#1437=CARTESIAN_POINT('',(15.24,9.612,-2.735));
#1436=AXIS2_PLACEMENT_3D($,#1437,#1438,#1439);
#1438=DIRECTION('',(0.0,0.931,-0.364));
#1439=DIRECTION('',(0.0,-0.384,-0.923));
#1429=ORIENTED_EDGE('',*,*,#1430,.F.);
#1464=CARTESIAN_POINT('',(15.24,5.798,-0.766));
#1463=VERTEX_POINT('',#1464);
#1462=EDGE_CURVE('',#1463,#1431,#1467,.T.);
#1467=LINE('',#1464,#1469);
#1469=VECTOR('',#1470,4.27831751159967);
#1470=DIRECTION('',(0.0,0.931,-0.364));
#1461=ORIENTED_EDGE('',*,*,#1462,.F.);
#1441=EDGE_CURVE($,#1455,#1463,#1446,.T.);
#1446=CIRCLE($,#1447,0.4445);
#1448=CARTESIAN_POINT('',(15.24,5.628,-1.177));
#1447=AXIS2_PLACEMENT_3D($,#1448,#1449,#1450);
#1449=DIRECTION('',(0.0,-0.931,0.364));
#1450=DIRECTION('',(0.0,0.384,0.923));
#1440=ORIENTED_EDGE('',*,*,#1441,.F.);
#1473=STYLED_ITEM('color',(#34),#1474);
#1474=ADVANCED_FACE($,(#1480),#1475,.T.);
#1475=CYLINDRICAL_SURFACE($,#1476,0.4445);
#1476=AXIS2_PLACEMENT_3D($,#1477,#1478,#1479);
#1477=CARTESIAN_POINT('',(15.24,9.612,-2.735));
#1478=DIRECTION('',(0.0,-0.931,0.364));
#1479=DIRECTION('',(-1.0,0.0,0.0));
#1480=FACE_OUTER_BOUND($,#1481,.T.);
#1481=EDGE_LOOP($,(#1504, #1482, #1514, #1493));
#1504=ORIENTED_EDGE('',*,*,#1462,.T.);
#1483=EDGE_CURVE($,#1453,#1431,#1488,.T.);
#1488=CIRCLE($,#1489,0.4445);
#1489=AXIS2_PLACEMENT_3D($,#1437,#1491,#1492);
#1491=DIRECTION('',(0.0,0.931,-0.364));
#1492=DIRECTION('',(0.0,0.384,0.923));
#1482=ORIENTED_EDGE('',*,*,#1483,.F.);
#1514=ORIENTED_EDGE('',*,*,#1452,.T.);
#1494=EDGE_CURVE($,#1463,#1455,#1499,.T.);
#1499=CIRCLE($,#1500,0.4445);
#1500=AXIS2_PLACEMENT_3D($,#1448,#1502,#1503);
#1502=DIRECTION('',(0.0,-0.931,0.364));
#1503=DIRECTION('',(0.0,0.384,0.923));
#1493=ORIENTED_EDGE('',*,*,#1494,.F.);
#1526=STYLED_ITEM('color',(#34),#1527);
#1527 = ADVANCED_FACE ( '', ( #1533 ), #1528, .T. ) ;
#1528 = TOROIDAL_SURFACE ( '', #1529, 0.889, 0.4445 ) ;
#1529 = AXIS2_PLACEMENT_3D ( '', #1530, #1531, #1532 ) ;
#1530 = CARTESIAN_POINT ( '',  ( 15.24,5.969,-0.356 ) ) ;
#1531 = DIRECTION ( '',  ( 1.0,0.0,0.0 ) ) ;
#1532 = DIRECTION ( '',  ( 0.0000000000000000000, 0.0000000000000000000, -1.000000000000000000 ) ) ;
#1533 = FACE_OUTER_BOUND ( '', #1534, .T. ) ;
#1534 = EDGE_LOOP ( '', ( #1535, #1546, #1557, #1568 ) ) ;
#1535=ORIENTED_EDGE('',*,*,#1218,.T.);
#1547=EDGE_CURVE($,#1455,#1241,#1552,.T.);
#1552=CIRCLE($,#1553,1.3335);
#1554=CARTESIAN_POINT('',(15.24,5.969,-0.356));
#1553=AXIS2_PLACEMENT_3D($,#1554,#1555,#1556);
#1555=DIRECTION('',(-1.0,0.0,0.0));
#1556=DIRECTION('',(0.0,0.0,1.0));
#1546=ORIENTED_EDGE('',*,*,#1547,.F.);
#1557=ORIENTED_EDGE('',*,*,#1441,.T.);
#1569=EDGE_CURVE($,#1219,#1463,#1574,.T.);
#1574=CIRCLE($,#1575,0.4445);
#1575=AXIS2_PLACEMENT_3D($,#1554,#1577,#1578);
#1577=DIRECTION('',(1.0,0.0,0.0));
#1578=DIRECTION('',(0.0,0.0,1.0));
#1568=ORIENTED_EDGE('',*,*,#1569,.F.);
#1579=STYLED_ITEM('color',(#34),#1580);
#1580 = ADVANCED_FACE ( '', ( #1586 ), #1581, .T. ) ;
#1581 = TOROIDAL_SURFACE ( '', #1582, 0.889, 0.4445 ) ;
#1582 = AXIS2_PLACEMENT_3D ( '', #1583, #1584, #1585 ) ;
#1583 = CARTESIAN_POINT ( '',  ( 15.24,5.969,-0.356 ) ) ;
#1584 = DIRECTION ( '',  ( -1.0,0.0,0.0 ) ) ;
#1585 = DIRECTION ( '',  ( 0.0000000000000000000, 0.0000000000000000000, 1.000000000000000000 ) ) ;
#1586 = FACE_OUTER_BOUND ( '', #1587, .T. ) ;
#1587 = EDGE_LOOP ( '', ( #1588, #1599, #1610, #1621 ) ) ;
#1588=ORIENTED_EDGE('',*,*,#1271,.T.);
#1599=ORIENTED_EDGE('',*,*,#1569,.T.);
#1610=ORIENTED_EDGE('',*,*,#1494,.T.);
#1621=ORIENTED_EDGE('',*,*,#1547,.T.);
#1632=STYLED_ITEM('color',(#34),#1633);
#1633 = ADVANCED_FACE ( '', ( #1639 ), #1634, .T. ) ;
#1634 = TOROIDAL_SURFACE ( '', #1635, 0.889, 0.4445 ) ;
#1635 = AXIS2_PLACEMENT_3D ( '', #1636, #1637, #1638 ) ;
#1636 = CARTESIAN_POINT ( '',  ( 15.24,9.271,-3.556 ) ) ;
#1637 = DIRECTION ( '',  ( -1.0,0.0,0.0 ) ) ;
#1638 = DIRECTION ( '',  ( 0.0000000000000000000, 0.0000000000000000000, 1.000000000000000000 ) ) ;
#1639 = FACE_OUTER_BOUND ( '', #1640, .T. ) ;
#1640 = EDGE_LOOP ( '', ( #1641, #1652, #1663, #1674 ) ) ;
#1641=ORIENTED_EDGE('',*,*,#1483,.T.);
#1653=EDGE_CURVE($,#1357,#1431,#1658,.T.);
#1658=CIRCLE($,#1659,1.3335);
#1660=CARTESIAN_POINT('',(15.24,9.271,-3.556));
#1659=AXIS2_PLACEMENT_3D($,#1660,#1661,#1662);
#1661=DIRECTION('',(1.0,0.0,0.0));
#1662=DIRECTION('',(0.0,0.0,1.0));
#1652=ORIENTED_EDGE('',*,*,#1653,.F.);
#1663=ORIENTED_EDGE('',*,*,#1388,.T.);
#1675=EDGE_CURVE($,#1453,#1349,#1680,.T.);
#1680=CIRCLE($,#1681,0.4445);
#1681=AXIS2_PLACEMENT_3D($,#1660,#1683,#1684);
#1683=DIRECTION('',(-1.0,0.0,0.0));
#1684=DIRECTION('',(0.0,0.0,1.0));
#1674=ORIENTED_EDGE('',*,*,#1675,.F.);
#1685=STYLED_ITEM('color',(#34),#1686);
#1686 = ADVANCED_FACE ( '', ( #1692 ), #1687, .T. ) ;
#1687 = TOROIDAL_SURFACE ( '', #1688, 0.889, 0.4445 ) ;
#1688 = AXIS2_PLACEMENT_3D ( '', #1689, #1690, #1691 ) ;
#1689 = CARTESIAN_POINT ( '',  ( 15.24,9.271,-3.556 ) ) ;
#1690 = DIRECTION ( '',  ( 1.0,0.0,0.0 ) ) ;
#1691 = DIRECTION ( '',  ( 0.0000000000000000000, 0.0000000000000000000, 1.000000000000000000 ) ) ;
#1692 = FACE_OUTER_BOUND ( '', #1693, .T. ) ;
#1693 = EDGE_LOOP ( '', ( #1694, #1705, #1716, #1727 ) ) ;
#1694=ORIENTED_EDGE('',*,*,#1430,.T.);
#1705=ORIENTED_EDGE('',*,*,#1675,.T.);
#1716=ORIENTED_EDGE('',*,*,#1335,.T.);
#1727=ORIENTED_EDGE('',*,*,#1653,.T.);
ENDSEC;
END-ISO-10303-21;
